<svg version="1.2" xmlns="http://www.w3.org/2000/svg" viewBox="0 0 500 500" width="500" height="500"><style>.a{fill:#f7f7f7}.b{opacity:1;fill:#1a1f1c}.c{fill:#020201}.d{fill:#040a03}.e{fill:#142d19}.f{fill:#0c6334}.g{fill:#3b562f}.h{fill:#57734e}.i{fill:#218b62}.j{fill:#1fa965}.k{fill:#03bd63}.l{fill:#6e866e}.m{fill:#10b863}.n{fill:#87a981}.o{fill:#95ca80}.p{fill:#97d07f}.q{fill:#a8d9af}.r{fill:#cae4d0}.s{fill:#f1eff2}.t{fill:#f6f6f6}</style><path class="a" d="m0 250v250h500v-500h-500z"/><path class="b" d="m347 211.5c0 1.2 0.8 1.4 3.3 0.9 1.7-0.4 4.8-1 6.7-1.4 2.9-0.7 2.4-0.8-3.3-0.9-5.3-0.1-6.7 0.2-6.7 1.4zm-6 10.3c0 3.7-0.3 8.8-0.7 11.5l-0.8 4.7h61.5v-21.5c-23.6-1.2-37.1-1.5-45.3-1.5h-14.7zm13 28v9.8c5 2.8 8.1 3.5 12.2 3.5 5.3 0 6.6-0.4 8.4-2.3 1.4-1.4 2.6-4.7 3.4-9.3 1-5.7 0.9-7.4-0.2-9.2-1.2-2.1-1.9-2.3-12.6-2.3h-11.2zm-97-7.5c-3 0.5-5.8 1.2-6.1 1.6-0.3 0.4-1.1 2.3-1.8 4.2-0.6 1.9-1.1 7.4-1.1 12.2v8.8l-33.5-1.1c-6.2 4.4-8.5 6.8-9.1 8.1-0.7 1.7-0.8 10.2-0.3 27l0.8 24.5 10.1 9.5c33.3-0.5 35.9-0.7 37.3-2.3 1.6-1.6 1.8-1.6 4.5 0.3 2 1.6 4.2 2.1 9 2h6.2v-38c5.5 0 5.5 0.1 6.2 8.2 0.5 4.6 0.8 11 0.8 14.3 0 5.7 0.3 6.2 4.5 10.7l4.5 4.8c35.4 0.1 36.6-0.1 38.5-2 2-2 2-2 4 0 1.6 1.6 3.4 2 8.8 2h6.7c0-57-0.2-78.6-0.3-84.9l-0.4-11.4c-17.7 1-22.9 1.4-23 1.5-0.2 0.2-0.6 6.3-1 13.6l-0.8 13.2c-3.9 0-11.8-0.6-20.1-1.2l-15.1-1.3c-4.9 6-5.9 6.5-9.8 6.5h-4.5v-32c-7.4 0.2-12 0.6-15 1.2zm-196.2 45.1c-0.2 24.8-0.2 46 0.1 47 0.6 1.7 2.2 1.8 27.1 1.5l26.5-0.3c9.5-6.8 10.1-7.6 10.7-12.1 0.3-2.7 0.7-9.7 0.7-15.6 0.1-10.6 0.1-10.9-3-14.5-3-3.7-3-3.9-1.5-7 1.3-2.7 1.5-5.6 1.1-15-0.4-6.5-0.8-13.2-1-14.8-0.3-1.7-2-4.6-3.7-6.6-1.8-2.1-4.3-4.2-5.5-4.8-1.3-0.6-8.3-1.5-15.5-2.1-7.3-0.5-18.3-0.9-24.4-1h-11.1zm292.2 14l-0.1 35.3c16.7-1.3 21.7-1.8 21.9-1.9 0.1-0.1 0.9-12.1 1.7-26.6 0.7-14.6 1.4-30 1.4-34.3l0.1-7.7h-25zm-216.1-32.8c-0.8 0.9-2.1 1.4-2.9 1.3-1.3-0.3-1.6 3.3-1.8 26.2-0.2 14.6-0.1 28.4 0.2 30.8 0.5 3.8 1 4.4 4.8 6.2 2.4 1.1 7 2.5 10.3 3.2 3.8 0.7 10.2 0.9 18 0.4 9.3-0.5 12.4-1 13.7-2.4 1.7-1.6 1.8-1.6 2.3 0.1 0.4 1.4 1.3 1.6 5.2 1.2 2.6-0.3 6-1.1 7.6-1.8 1.6-0.6 3-2.1 3.2-3.2 0.2-1.1 0.6-14.4 0.9-29.5 0.5-26.2 0.4-27.6-1.5-29.7-1.6-1.9-2.6-2.2-6.2-1.8-2.3 0.4-5.6 0.7-7.2 0.9-1.7 0.1-3.5 0.5-4 0.8-0.6 0.3-1.9 2.3-2.9 4.4-1.5 3.1-1.9 7-2.3 19.9-0.2 8.8-0.7 17.6-1 19.5l-0.5 3.5c-11.1-1.2-14.4-1.6-14.5-1.8-0.1-0.1-0.8-8.5-1.6-18.7-1.1-13.8-1.9-19.5-3.3-22.4-1.3-2.6-3-4.4-5.2-5.3-1.8-0.7-4.2-1.3-5.5-1.3-1.2 0-2.7-0.4-3.3-1-0.7-0.8-1.5-0.6-2.5 0.5zm251.3 3l-3.2 3.5c0 23.6 0.2 36.6 0.6 44l0.6 13.5c7.6 4.4 8.7 4.5 30 4.5 12.3 0 23.8-0.3 25.8-0.6 2.9-0.4 3.9-1.3 6.2-5.2 1.6-2.8 2.7-6.2 2.7-8.4 0.1-2.6-0.5-4.1-1.7-4.7-0.9-0.5-5.7-1.1-10.6-1.3-7.6-0.3-8.9-0.1-9.7 1.5-0.8 1.4-2.4 1.7-9.9 1.7h-9v-9c32.6 0.1 33.7-0.1 37-2.3 3.3-2.1 3.5-2.7 4.1-9.2 0.4-3.9 0.9-11.2 1.3-16.3l0.6-9.2-9-6-52.5 0.1zm-179.7 70c-0.3 0.8-0.1 2.3 0.4 3.4 0.6 1.1 1.2 4.2 1.5 6.8 0.3 2.6 0.7 5.5 1 6.5q0.5 1.7-1.2 1.8c-1 0.1 0.2 0.8 2.7 1.6 2.5 0.8 8.8 1.7 14 1.9 5.2 0.2 17.3 0.6 26.8 0.9l17.2 0.5c0-19.8-0.3-23.1-1.2-23.4-0.7-0.2-14.6-0.6-31-1-25.6-0.4-29.7-0.3-30.2 1zm136.2 15.5c-0.5 5.2-0.8 12.6-0.8 16.4v7c64.2-0.7 83.1-1.2 83.4-1.5 0.3-0.2 0.5-7 0.6-15 0-7.9 0-14.5-0.2-14.6-0.2-0.1-18.7-0.5-41.3-0.9l-41-0.8z"/><path class="c" d="m47 135.6c-1.1 0.5-1.4 2.6-1.2 10.2 0.1 5.4 0.6 10.3 1 11 0.5 0.9 3.2 1.2 10 1 5.6-0.2 9.3 0.1 9.4 0.7 0 0.6 0.2 16.3 0.2 35l0.1 34c7.1 0.4 10.3-0.1 12-1 1.7-0.9 3.1-1.5 3.2-1.5 0.2 0 0.3 0.7 0.3 1.5 0 1.2 0.9 1.4 3.7 1 2.1-0.2 3.9-0.6 3.9-0.7 0.1-0.2 0.4-3.9 0.7-8.3 0.3-4.4 0.9-17.7 1.2-29.5 0.4-11.8 0.8-23.5 1-26l0.3-4.5c9.4-0.4 12.2-0.9 12.2-1.5 0-0.6 1.5-0.8 3.5-0.5l3.5 0.5c0.1-6.6 0.3-11.3 0.6-14.7l0.4-6.3c-43 0-57.5-0.2-60-0.5-2.5-0.2-5.2-0.2-6 0.1zm220.5 0.6c-0.3 0.7-0.4 21.3-0.3 45.8l0.3 44.5c4.8 2.2 9.5 2.8 14.5 2.9l8.5 0.1 0.5-38.5 20 1v-21h-19v-13c27.4 0 30.1-0.3 30.5-1.5 0.3-0.8 0.5-5.6 0.5-10.5v-9c-11.2-0.7-23.6-1.2-34.7-1.5-16.2-0.5-20.3-0.4-20.8 0.7zm-147.6 0.6c0 0.4 0 10.8 0 23.2 0.1 12.4 0.4 31.9 0.7 43.5 0.4 11.6 1.1 21.8 1.5 22.8 0.5 0.9 2.9 2.6 5.4 3.7 4.1 1.8 6.6 2 27.2 2h22.8c3.9-4.3 5.6-6.6 6.4-8 0.9-1.7 1.6-8.9 2.3-21.5 0.5-10.4 0.7-28.4 0.6-39.9-0.2-16.8-0.6-21.4-1.8-22.9-1-1.3-3.3-2.1-7-2.5-3-0.3-6.9-0.6-8.5-0.6-2.5-0.1-3.3 0.5-4.7 3.4-1.6 3.1-1.8 7.1-1.8 36.8 0 18.2-0.3 33.2-0.8 33.2-0.4 0-3.9 0.2-7.7 0.5-3.9 0.2-7.5 0.1-8.1-0.3-0.8-0.5-1.4-11.6-1.9-35.2-0.7-33.5-0.7-34.6-2.8-36.8-2-2-3.1-2.2-12-2.2-5.3 0-9.7 0.3-9.8 0.8zm81.6 0.9c-1.2 0.3-1.9 1.2-1.7 2.4 0.1 1-0.2 1.9-0.8 1.9-0.6 0-1.2-1-1.6-2.2l-0.5-2.3c-1.7 4-2.4 16.5-2.7 34-0.2 15.9-0.1 34.6 0.2 41.5 0.4 6.9 1 13.1 1.4 13.8 0.5 0.8 3.8 1.3 10.1 1.5l9.4 0.2c1.4-4.6 1.9-8 2.1-10.5 0.2-2.5 0.5-5.7 0.5-7.2 0.1-2.6 0.4-2.8 4.1-2.8 3.8 0 4.1 0.3 7.5 6 1.9 3.3 3.5 6.3 3.5 6.8 0 0.4 1.1 2.4 2.5 4.5 1.4 2 3.2 3.7 4 3.7 0.8 0 1.3-0.4 1-1-0.3-0.6 0.1-1 0.7-1q1.3 0-0.2-0.9c-1.2-0.7-1.1-1 0.7-1.5 1.5-0.4 2.8 0 3.5 0.9 0.7 0.9 2.5 1.6 4 1.5 2.8 0 2.8-0.1 3.1-7.2 0.2-4.5-0.2-8.4-1-10-0.7-1.6-1.1-3.1-0.9-3.5 0.2-0.5 1.8-1.1 3.5-1.5 2.3-0.6 3.6-1.9 5.2-5 2-4.1 2.1-5.5 1.8-29.3-0.3-15.7-0.8-25.7-1.5-27-0.6-1.1-2-2.4-3-2.8-1.1-0.4-7.8-1.2-14.9-1.7-7.2-0.5-18.6-1.1-25.5-1.4-6.9-0.2-13.4-0.2-14.5 0.1z"/><path class="d" d="m380 114.5c-4.1 0.8-9.5 1.6-12 1.9-2.5 0.3-11.5 1.7-20.1 3.3-12 2.1-15.7 3.1-15.8 4.3 0 0.8 1.2 9.2 2.9 18.5 1.6 9.3 4.7 27.3 7 40 2.2 12.7 4.2 24 4.5 25.3 0.5 2.1 0.8 2.2 8.8 1.8 4.5-0.2 11.6-0.9 15.7-1.5 4.1-0.5 14-2.2 22-3.6 8-1.4 14.5-2.7 14.6-2.8 0-0.1-2.3-13.3-5.1-29.2-2.8-15.9-5.5-30.3-5.9-32-0.4-1.7-1-4.1-1.2-5.5-0.3-1.4-1.1-5.9-2-10-0.8-4.1-1.7-8.5-2-9.8-0.2-1.3-1.1-2.2-2.1-2.1-1 0-5.2 0.7-9.3 1.4zm-253.5 21.2c2.8 0.2 6.8 0.2 9 0 2.2-0.2-0.1-0.3-5-0.3-4.9 0-6.7 0.1-4 0.3zm44 0.3c1.7 0.6 5.3 1.2 8 1.4 3.2 0.3 5.6 1.1 6.6 2.2 1.1 1.4 1.4 3.2 1.1 6.4-0.3 2.8-0.1 4.8 0.7 5.3 0.8 0.5 1-1.5 0.9-7.5l-0.3-8.3c-17.3-0.3-19.2-0.1-17 0.5zm23 0.7c-0.5 0.3-0.8 21.8-0.7 47.7l0.2 47.1c17.4-1.2 22.8-1.9 23.2-2.3 0.3-0.4 0.9-3 1.2-5.7l0.6-5-2.5 10c-15.9-0.4-19.2-0.9-19.7-1.7-0.4-0.7-1-6.9-1.4-13.8-0.3-6.9-0.4-25.6-0.2-41.5 0.3-17.5 1-30 1.6-31.5l1.1-2.5c0.9 3.5 1.5 4.5 2.1 4.5 0.6 0 1-0.9 1-2 0-1.5 1-2.2 3.8-2.9 3.4-0.8 3.2-0.9-2.9-1-3.6-0.1-6.9 0.2-7.4 0.6zm-88.5 20.8q0 1.5 3 1.5c1.7 0 3.2-0.4 3.5-1 0.3-0.6-0.5-1.2-1.7-1.5-1.3-0.3-2.9-0.5-3.5-0.5-0.7 0-1.3 0.7-1.3 1.5zm80.9 49c-0.4 10.1-1 15.8-2 17.5-0.8 1.4-2.5 3.7-3.9 5.3l-2.5 2.7c3.9 0 5.1-1.2 6.7-4.8 1.9-3.8 2.4-6.8 2.6-16.2 0.2-6.3 0.2-13.3 0-15.5-0.2-2.2-0.6 2.7-0.9 11zm-23.6-3.5c0 4.1 0.2 5.9 0.4 4 0.2-1.9 0.2-5.3 0-7.5-0.2-2.2-0.4-0.6-0.4 3.5zm90.2 11.7c-0.5 0.3-0.8 3.3-0.7 6.5 0.2 5.7 0.2 5.8-2.6 5.8-1.5 0.1-3.3-0.6-4-1.5-0.7-0.9-2-1.3-3.5-0.9-1.8 0.5-1.9 0.8-0.7 1.5q1.5 0.9 0.2 0.9c-0.6 0-1 0.4-0.7 1 0.3 0.6-0.1 1-0.8 1-0.6 0-1.8-0.5-2.6-1.2-1.1-1.1-1.1-1 0 1 0.8 1.2 2.1 2.2 2.9 2.2 0.8 0 3.7-0.6 6.5-1.4 2.7-0.8 6.2-1.7 7.7-2 1.7-0.3 3-1.4 3.3-2.6 0.3-1.1-0.4-4-1.4-6.5-1-2.5-2.1-4.5-2.3-4.5-0.3 0-0.8 0.3-1.3 0.7zm-174.5 11.9c-1.5 0.9-4.5 1.3-7.3 1.2-3.9-0.3-4.7 0-4.7 1.4 0 1.6 0.9 1.7 8.2 1.3 4.6-0.3 10-0.7 12-1 2.1-0.3 3.8-0.9 3.8-1.5 0-0.6-1.7-0.8-4-0.5-3.1 0.4-4 0.2-4-1 0-0.8-0.3-1.5-0.8-1.4-0.4 0.1-1.8 0.7-3.2 1.5zm188.9 2c0.1 2.3 0.4 2.4 6.8 2.4 4.8 0 6.4-0.3 5.3-1-0.8-0.5-2.6-1-4-1-1.4 0-3.8-0.7-5.3-1.4-2.8-1.4-2.9-1.4-2.8 1z"/><path class="e" d="m162.4 186c0 5.8 0.1 8 0.3 5 0.2-3 0.2-7.8 0-10.5-0.2-2.8-0.3-0.3-0.3 5.5zm-42.2 29.5c-0.1 4.4 0.2 9.1 0.6 10.4 0.4 1.3 2 3 3.7 3.8 2.8 1.3 2.8 1.3 1-0.2-1.1-0.8-2.5-1.7-3-1.9-0.6-0.1-1.3-4.7-1.6-10.2l-0.6-9.9zm127.9 30.8l0.1 4.2c2.1-5.8 3.4-7.2 4.9-7.7 2-0.5 1.7-0.6-1.3-0.7l-3.7-0.1zm-141.6-2.6c1.1 0.2 3 0.6 4.2 0.9 1.3 0.2 3.6 1.7 5.2 3.2 1.6 1.5 3.6 4.1 4.5 5.7 0.9 1.7 1.6 2.4 1.6 1.5 0-0.8-1.3-3.4-3-5.7-1.7-2.3-4.1-4.7-5.5-5.3-1.4-0.5-4-0.9-5.8-0.8-1.9 0-2.4 0.3-1.2 0.5zm25.5 24.1c0 1 0.8 1.8 1.7 1.9 1 0 2.6-0.5 3.5-1.3 1.1-0.8 1.9-1 2.2-0.4 0.2 0.6 1.5 1 3 1 1.4 0 4 0.6 5.8 1.4 2 0.8 4 2.7 5 4.7 1.7 3.4 1.7 3.4 1.8 0.7 0-1.5-1.3-4.3-2.8-6.3l-2.7-3.5c-16.4 0-17.5 0.3-17.5 1.8zm45.4 1.3c-1.8 2.1-2.6 4.1-2.5 6.3l0.1 3.1c2.4-4.6 3.6-6.4 4.2-6.9 0.7-0.5 2.6-1 4.2-1.2 1.7-0.1 5-0.5 7.3-0.8 3.6-0.5 4.6-0.2 6.3 1.7l2 2.2v-7.5c-18.7 0-18.9 0.1-21.6 3.1zm30.5 2.2c-2.6 3.3-2.8 3.8-0.9 2.2 1.4-1.2 3.6-2.8 5-3.7 1.4-0.8 4.5-1.7 7-2 4-0.4 3.8-0.4-1.7-0.6-6.2-0.1-6.2-0.1-9.4 4.1zm196.1-3.5c6.9 0.2 18.6 0.2 26 0 7.4-0.2 1.8-0.3-12.5-0.3-14.3 0-20.4 0.1-13.5 0.3zm-205.7 30.7c0.1 6.1 0.2 8.4 0.4 5 0.2-3.3 0.2-8.2 0-11-0.2-2.7-0.4 0-0.4 6zm-73.4 25.5c-0.4 3.8-1 4.8-4.9 7.7-2.5 1.8-5.4 3.3-6.5 3.4-1.7 0.2-1.7 0.2-0.3 0.6 1 0.2 3.2-0.5 5-1.6 1.8-1 4.3-2.9 5.6-4.2 1.7-1.8 2.2-3.3 1.9-6.4l-0.3-4zm7.4 5.6c0.1 2.4 1 3.4 4.1 5.2 2.7 1.5 5.6 2.3 8.5 2.2l4.5-0.1c-6.2-1.4-9.9-2.7-12.2-3.8-2.8-1.3-4.4-2.7-4.7-4.2-0.2-1.3-0.3-1-0.2 0.7zm64.7 2.3c0 0.4-1.2 1.3-2.8 2-1.5 0.7-4.6 1.4-6.9 1.5-2.3 0.1-4 0.6-3.8 1 0.2 0.4 3.6 0.7 7.4 0.7h7c0-4.6-0.2-6-0.5-6-0.2 0-0.5 0.4-0.4 0.8zm10.6 9c-0.2 0.4-0.6 5.9-0.8 12.2l-0.4 11.5 56 0.2c-38.7-1.2-46.2-1.8-49.5-2.9-2.4-0.9-3.7-1.6-2.7-1.7q1.7-0.1 1.2-1.8c-0.2-1-0.7-3.9-1-6.5-0.2-2.6-0.9-5.7-1.5-6.8-0.5-1.1-0.8-2.6-0.5-3.5 0.3-0.8 0.3-1.5 0.1-1.5-0.3 0-0.7 0.4-0.9 0.8z"/><path class="f" d="m261 170.8l0.5 27.7c0.4-41.9 0.2-54.3-0.3-54.7-0.4-0.4-0.5 11.8-0.2 27zm-98.6-10.8c0 9.1 0.2 12.7 0.3 8 0.2-4.7 0.2-12.1 0-16.5-0.1-4.4-0.3-0.6-0.3 8.5zm-43.1 3c0 4.7 0.2 6.5 0.4 4 0.2-2.5 0.2-6.3 0-8.5-0.2-2.2-0.4-0.2-0.4 4.5zm68.1 10.5c0 6.1 0.1 8.3 0.3 5 0.2-3.3 0.2-8.3 0-11-0.2-2.8-0.3-0.1-0.3 6zm-42.1 18.5c0 4.7 0.2 6.5 0.4 4 0.2-2.5 0.2-6.3 0-8.5-0.2-2.2-0.4-0.2-0.4 4.5zm-13.9 89c0 8.5 0.2 11.9 0.3 7.5 0.2-4.4 0.2-11.4 0-15.5-0.1-4.1-0.3-0.5-0.3 8zm67 42c0 8 0.2 11.4 0.3 7.5 0.2-3.9 0.2-10.4 0-14.5-0.1-4.1-0.3-1-0.3 7z"/><path class="g" d="m72.5 135.7c5 0.2 12.6 0.2 17 0 4.4-0.1 0.3-0.3-9-0.3-9.3 0-13 0.2-8 0.3zm238.9 46.8c0 5.5 0.1 7.5 0.3 4.5 0.2-3 0.2-7.5 0-10-0.2-2.5-0.3 0-0.3 5.5zm-20.2 33.3c-0.2 12.6-0.4 14.2-2 14.6-1.6 0.3-1.6 0.4 0 0.5 1 0 2-0.5 2.3-1.1 0.3-0.7 0.4-7.4 0.2-14.8l-0.3-13.5zm-18.8 48.3c0 4.6 0.1 6.4 0.4 4 0.2-2.5 0.2-6.3 0-8.5-0.3-2.2-0.4-0.2-0.4 4.5zm-212 38.5c0 7.7 0.2 10.6 0.4 6.5 0.2-4.2 0.2-10.5 0-14-0.2-3.6-0.4-0.2-0.4 7.5z"/><path class="h" d="m401.4 227c0 6.3 0.1 8.8 0.3 5.5 0.2-3.3 0.2-8.5 0-11.5-0.2-3-0.3-0.3-0.3 6zm-129.1 22.5c0 3.8 0.2 5.2 0.4 3 0.2-2.2 0.2-5.3 0-7-0.2-1.7-0.4 0.2-0.4 4zm-211.9 25.5c0 8 0.2 11.4 0.3 7.5 0.2-3.9 0.2-10.4 0-14.5-0.1-4.1-0.3-1-0.3 7zm301.1-11.3c1.6 0.2 4.8 0.2 7 0 2.2-0.2 0.8-0.4-3-0.4-3.9 0-5.7 0.2-4 0.4z"/><path class="i" d="m145.3 177c0 4.1 0.2 5.9 0.4 4 0.2-1.9 0.2-5.3 0-7.5-0.2-2.2-0.4-0.6-0.4 3.5zm-25.9 3c0 5.2 0.1 7.3 0.3 4.5 0.2-2.8 0.2-7 0-9.5-0.2-2.5-0.3-0.2-0.3 5zm67.9 12c0 4.7 0.2 6.5 0.4 4 0.2-2.5 0.2-6.3 0-8.5-0.2-2.2-0.4-0.2-0.4 4.5zm59.7 70v6l-7.5 0.7 8.5 0.3c0-10.1-0.2-13-0.5-13-0.3 0-0.5 2.7-0.5 6zm-115.6 51.5c0 9.9 0.2 13.7 0.3 8.5 0.2-5.2 0.2-13.3 0-18-0.1-4.7-0.3-0.4-0.3 9.5zm118.6 27.2c3 0.2 7.5 0.2 10 0 2.5-0.2 0-0.3-5.5-0.3-5.5 0-7.5 0.1-4.5 0.3z"/><path class="j" d="m131 132.2c-0.8 0.7-1.3 1.6-1.2 2 0.1 0.4 2.3 0.7 5 0.6 4.1-0.1 4.3-0.2 0.9-0.5-2.7-0.2-3.6-0.7-3.3-1.8 0.2-0.8 0.3-1.5 0.2-1.5-0.1 0-0.8 0.5-1.6 1.2zm45.5 1.8l-9 0.6c16 0.3 19.3 0 19-0.6-0.3-0.5-0.6-0.9-0.8-0.8-0.1 0.1-4.3 0.5-9.2 0.8zm16 49.5c0 26.4 0.1 37 0.2 23.5 0.2-13.5 0.2-35.1 0-48-0.1-12.9-0.2-1.9-0.2 24.5zm69.3-13.3c0.1 16.4-0.2 27.6-0.8 28.8-0.6 1.1-0.6 2-0.2 2 0.4 0 1.3-0.6 2-1.2 0.9-1 1.2-8.4 1.1-28.9-0.2-19-0.6-27.6-1.3-27.6-0.8 0-1 8.1-0.8 26.9zm-146.1-23.7c-2.2 2-2.7 3.3-2.6 6.8 0.1 2.4 0.3 3.1 0.6 1.7 0.2-1.4 0.6-3.5 0.8-4.7 0.3-1.3 1.1-2.2 1.7-2 0.7 0.2 1.6 2.3 1.9 4.8 0.5 3.9 0.6 3.7 0.7-2.3 0.1-3.8 0.1-6.8-0.1-6.8-0.1 0-1.4 1.2-3 2.5zm72.6 5.5c0 4.7 0.2 6.5 0.4 4 0.2-2.5 0.2-6.3 0-8.5-0.2-2.2-0.4-0.2-0.4 4.5zm-42.9 9.5c0 5 0.1 7.2 0.3 5 0.2-2.2 0.2-6.2 0-9-0.2-2.7-0.3-0.9-0.3 4zm42.3 34c-0.4 15.4-0.5 28.2-0.3 28.5 0.3 0.3 0.8-6.9 1.1-16 0.4-9.1 0.5-21.9 0.3-28.5-0.2-8.5-0.5-3.9-1.1 16zm11.5 99c-0.2 21.2 0 25.7 1 24.3 0.7-1 1.8-1.4 2.4-1 0.7 0.4 1.4 1.6 1.8 2.7 0.3 1.1 0.3-4.3 0.1-12-0.3-7.7-0.6-18.1-0.6-23-0.1-4.9-0.3-8.2-0.5-7.2-0.2 0.9-1.1 1.7-1.9 1.7-1.1 0-1.6-1.4-1.8-5.7-0.2-3.2-0.4 5.9-0.5 20.2zm-72.8 14.3c-0.1 7.6 0 12.7 0.2 11.5 0.3-1.5 1.1-2.3 2.4-2.3 1.9 0 2-0.6 1.9-9.7-0.1-5.4-0.4-8.6-0.5-7-0.2 1.5-0.8 2.5-1.4 2.2-0.6-0.3-1-1.7-1-3.2 0-1.6-0.4-3.3-0.8-4-0.4-0.6-0.8 5-0.8 12.5zm127.1 27.2c-0.3 0.6-8.2 1-20.5 1-15.5 0-19.9 0.3-19.7 1.3 0.3 0.9 5.9 1.3 23 1.5 17.6 0.1 22.7-0.1 22.7-1 0-1 0.2-1 1.2 0 0.7 0.7 1.9 1.2 2.6 1.2 0.6 0 1.2-0.7 1.2-1.5 0-1-1.1-1.5-3.5-1.5-1.9 0-3.7-0.4-4-1-0.3-0.5-0.9-1-1.5-1-0.5 0-1.1 0.5-1.5 1z"/><path class="k" d="m243 88.6c-3.6 0.2-10.8 0.9-16 1.5-5.2 0.6-12.9 1.9-17 2.9-4.1 1.1-9.8 2.5-12.5 3.3-2.8 0.8-8.2 2.7-12 4.1-3.8 1.5-10.6 4.5-15 6.8-4.4 2.2-10.7 5.6-14 7.6-3.3 2-9.4 6-13.5 9.1-4.1 3-8 6.2-8.7 7-0.6 0.9-0.9 1.9-0.7 2.4 0.2 0.4 1.1 0.5 1.9 0.2 0.8-0.3 3 0.3 4.7 1.3 1.8 0.9 3.4 1.7 3.6 1.7 0.1 0 0.7 2 1.2 4.5 0.5 2.5 1.2 18.4 1.5 35.5 0.4 17.1 0.9 31.3 1.1 31.8 0.2 0.4 2.8 0.7 5.6 0.7 2.9 0 5.9-0.4 6.6-0.8 0.9-0.5 1.3-8.2 1.4-33.2 0.1-17.9 0.5-33.6 1-35 0.5-1.4 1-2.7 1.1-3 0-0.3 1-1.2 2.1-2.2 1.7-1.3 4.1-1.6 11.9-1.5 5.4 0.1 10.2 0.6 10.6 1.2 0.5 0.6 1.2 2.4 1.6 4l0.8 3 1.7-6.5c16.3 0 24.3 0.4 28.3 1 3.9 0.5 13 1.2 20.2 1.4 7.2 0.3 14.5 0.9 16.4 1.3 1.9 0.4 4 1.7 4.7 2.8 1.2 1.8 1.3 1.6 1.9-2.5 0.4-2.5 0.5-14.5 0.3-26.7-0.2-12.2-0.5-22.4-0.8-22.8-0.3-0.3-3.4-0.7-7-0.9-3.6-0.2-9.4-0.2-13 0zm-128.3 66.4c-0.7 4.8-0.8 5-4.2 5.5-1.9 0.3-3.7 1.2-4 2-0.3 0.8-1.5 1.9-2.7 2.4-1.5 0.5-3.8 3.8-6.6 9.2l-4.2 8.4c-0.6 21.7-0.9 31.9-0.9 36.8-0.1 7.7-0.4 8.9-2.4 11l-2.4 2.2c6.4 2.6 10.9 3.9 14.2 4.5 3.3 0.5 8.1 1.7 10.8 2.5 2.8 0.9 5.8 2.8 7.5 4.7 1.5 1.7 4.1 5.1 5.7 7.5 1.7 2.3 4.1 5 5.5 5.8 1.4 0.8 3.7 2 5.3 2.7 1.5 0.7 2.7 1.6 2.7 2.1 0 0.4 2.4 1 5.3 1.3 4.6 0.6 5.9 1.3 10.7 6 3.9 3.9 6.3 5.5 8.5 5.6 1.7 0.1 4.1-0.3 5.5-0.9 1.4-0.6 4.3-3 6.5-5.2 2.2-2.3 5.6-4.6 7.5-5.1 1.9-0.5 10-0.9 18-0.9 8 0 18.8-0.4 24-1 7.5-0.9 10.2-1.6 12.8-3.6 1.7-1.4 3.5-3.3 3.9-4.2 0.4-1 1.3-2.5 2.1-3.3 1-1 1.3-2.7 0.9-5-0.4-2.2-0.1-4 0.8-5 0.7-0.8 1.6-3.2 1.9-5.2l0.6-3.8c-9.9 0.5-11.2 0.1-12.4-1.5-0.9-1.1-1.6-2.8-1.6-3.7 0-1-0.4-1.8-1-1.8-0.5 0-1.2-1.1-1.5-2.5-0.3-1.4-0.9-2.5-1.5-2.5-0.5 0-1.2-1.3-1.5-3-0.3-1.6-0.8-3-1.2-3-0.5 0-1.5-1.1-2.3-2.5-0.8-1.4-2.1-2.5-2.7-2.5-0.7 0-1.7 1.1-2.3 2.5-0.5 1.4-1 5.4-1 9 0 3.6-0.4 7.4-1 8.5-0.6 1.2-2.3 2.2-4.2 2.4-1.8 0.3-6.9 0.7-11.3 1-4.4 0.3-8.7 0.1-9.5-0.4-0.8-0.5-1.6-2.2-1.6-3.7-0.1-1.5-0.2-3.6-0.3-4.5 0-1-0.4-1.8-0.8-1.8-0.5 0-1.9 2-3.3 4.6-1.4 2.5-3.3 5-4.2 5.5-1 0.5-14.2 0.8-29.3 0.7-17-0.2-27.8-0.7-28.3-1.3-0.4-0.6-1.3-1-1.9-1-0.7 0-1.6-0.1-2-0.2-0.5-0.2-1.1-2.4-1.5-5-0.4-2.7-0.8-18.5-0.9-35.3-0.1-16.8-0.4-32.5-0.8-34.9-0.3-2.4-1.1-4.6-1.7-4.8-0.6-0.2-1.3 1.7-1.7 4.7zm146.3 46.2c-0.8 0.7-1.3 1.8-1.2 2.5 0.1 0.7-0.9 2.1-2.3 3.1-1.4 0.9-2.8 2.3-3 3-0.3 0.6 0.3 2.2 1.3 3.5 1 1.2 2.5 4.1 3.3 6.5 1.1 3.5 1.2 4.7 0.2 6.3-0.7 1-1.3 2.5-1.3 3.2 0 0.6-0.6 1.3-1.2 1.4-0.7 0.2-2.8 0.5-4.5 0.8-2.3 0.3-3.3 1.1-3.3 2.3-0.1 1.5 0.1 1.5 1.5 0.2 1.1-1.1 1.6-1.1 1.5-0.2 0 0.8 1.1 0.6 3.8-0.8 2-1 4-1.7 4.5-1.5 0.4 0.3 1.2-0.5 1.9-1.7 0.7-1.5 1-7.3 1-15.8-0.1-7.4-0.3-13.6-0.5-13.7-0.2-0.2-1 0.3-1.7 0.9zm-137.7 136.8c-2.1 0.4-5.2 1.4-6.8 2.3-1.7 1-4.7 2.8-6.8 4.2-2 1.4-3.7 2.1-3.7 1.5 0-0.6-0.5-0.8-1-0.5-0.6 0.3-1 1.3-1 2.2 0 1 2.7 5.6 6.1 10.3 3.4 4.7 11 13.2 16.8 19 5.9 5.8 15.1 13.9 20.6 18 5.5 4.1 13.7 9.6 18.2 12.2 4.6 2.7 9 4.8 9.8 4.8 0.8 0 1.6 0.4 1.7 0.8 0.2 0.5 5 2.9 10.8 5.4 5.8 2.6 13.2 5.4 16.5 6.3 3.3 1 6.9 2.1 8 2.6 1.1 0.4 5.1 1.5 9 2.3 3.8 0.8 11.5 2.2 17 3 5.5 0.8 12.9 1.6 16.5 1.8 3.6 0.1 7.1-0.1 7.7-0.5 1-0.5 1.3-7.9 1.3-31.2 0-28.2-0.1-30.5-1.8-30.9-0.9-0.2-4.5-0.4-7.9-0.3-3.5 0.1-6.3-0.1-6.3-0.6 0-0.4-5.5-0.7-12.3-0.7-7.9 0-14.3-0.5-18.2-1.6-3.3-0.8-7.1-1.7-8.5-1.9-2.1-0.2-2.8-1.3-4.5-6.1-1.1-3.3-2.5-6.2-3.2-6.7-0.7-0.4-1.3-1.5-1.3-2.5 0.1-0.9-0.6-2.4-1.5-3.2-0.9-0.8-1.6-2.1-1.5-2.8 0-0.7-1.2-1.2-3-1.2-1.8 0-3.2-0.6-3.5-1.5-0.3-1-1.8-1.5-4-1.5-1.9 0-3.7 0.3-3.9 0.7-0.2 0.5-6 0.8-12.8 0.7-6.7-0.1-15.5-0.4-19.3-0.9-3.9-0.4-10.7-1.5-15.2-2.4-4.5-0.9-9.8-1.4-12-1.1z"/><path class="l" d="m352.4 301.5c0 6.1 0.1 8.3 0.3 5 0.2-3.3 0.2-8.3 0-11-0.2-2.8-0.3-0.1-0.3 6zm69.1 10.2c4.4 0.2 11.4 0.2 15.5 0 4.1-0.1 0.5-0.3-8-0.3-8.5 0-11.9 0.2-7.5 0.3zm-74.2 15.8c0 4.4 0.2 6 0.4 3.5 0.2-2.5 0.2-6.1 0-8-0.2-1.9-0.4 0.1-0.4 4.5zm-75.9 26.5c0 5.8 0.1 8 0.3 5 0.2-3 0.2-7.8 0-10.5-0.2-2.8-0.3-0.3-0.3 5.5zm141.6-5.3c2.5 0.2 6.1 0.2 8 0 1.9-0.2-0.1-0.4-4.5-0.4-4.4 0-6 0.2-3.5 0.4z"/><path fill-rule="evenodd" class="m" d="m177.5 133.3l-5.2 0.6c-2.9 0.3-5.8 1.2-6.4 1.8-0.7 0.7-1.8 1.3-2.3 1.3-0.6 0.1 0-0.8 1.4-1.9 1.8-1.5 3.9-2 12.5-1.8zm14 3.7c0.3 0 0.4 20.1 0.4 44.7-0.1 24.7-0.3 43.8-0.5 42.5-0.2-1.2-0.8-2.2-1.4-2.2-0.6 0-1.7 1.6-2.5 3.5-0.8 1.9-1.8 3.3-2.2 3-0.5-0.2 0.1-1.7 1.2-3.2 1.9-2.7 1.9-4.6 2-45.1 0-34.3 0.2-41.9 1.3-40.5 1.1 1.7 1.2 1.6 1.2-0.5 0-1.2 0.2-2.2 0.5-2.2zm-29.8 9c0.2 2.5 0.2 6.7 0 9.5-0.2 2.7-0.3 0.7-0.3-4.5 0-5.2 0.1-7.5 0.3-5zm-53.3 14.1c1.5 0 1.7 0.2 0.6 0.6-0.8 0.4-2.1 1.4-2.8 2.5-0.6 1-2 1.8-3 1.8-1.4 0-1.3-0.3 0.7-2.5 1.3-1.4 3.4-2.5 4.5-2.4zm53.3 21.4c0.2 3.3 0.2 8.9 0 12.5-0.2 3.6-0.3 0.9-0.3-6 0-6.9 0.1-9.8 0.3-6.5zm-15 7.5c0.2 3 0.2 8.4 0 12-0.2 3.6-0.3 1.1-0.3-5.5 0-6.6 0.1-9.5 0.3-6.5zm-27 10.5c0.2 4.4 0.2 11.8 0 16.5-0.1 4.7-0.3 1.1-0.3-8 0-9.1 0.2-12.9 0.3-8.5zm144 2.5c0.2 1.9 0.2 5.5 0 8-0.2 2.5-0.4 0.9-0.4-3.5 0-4.4 0.2-6.4 0.4-4.5zm-3.8 1.6c0.3 0.2-0.9 1.8-2.6 3.4-1.9 1.7-3 3.5-2.6 4.2 0.3 0.7 1.1 2 1.8 2.8 0.6 0.8 1.8 3.4 2.6 5.8 1.1 3.5 1.2 4.7 0.2 6.3-0.7 1-1.3 2.5-1.3 3.1 0 0.7-0.6 1.4-1.2 1.5-0.7 0.2-2.8 0.5-4.5 0.8-2.3 0.3-3.3 1.1-3.3 2.2-0.1 1.6 0.1 1.6 1.5 0.3 1.1-1.1 1.6-1.1 1.5-0.3 0 0.9 1.1 0.7 3.8-0.7 2-1 4-1.7 4.5-1.5 0.4 0.3 1-0.1 1.4-0.8 0.4-0.6 1-3.5 1.4-6.2 0.5-4 0.6-3 0.8 4.7 0 5.7-0.3 10-0.9 10.3-0.6 0.3-4 0.8-14.5 1.7l-0.8 9.2c-0.4 5-0.7 11-0.7 13.3 0 4.3 0 4.3-3.7 4.3-2.1 0-10.1-0.5-31.8-2.3l-3.8 4.4c-2.1 2.4-4 5.6-4.2 7.1-0.3 1.6-1.1 2.8-2 2.8-1.1 0-1.5-1.2-1.5-4.8 0-2.6-0.2-5.7-0.5-7-0.5-2.1-0.9-2.2-10.7-2.2-8.5-0.1-10-0.3-8.3-1.3 1.3-0.8 7.5-1.3 18-1.4 8.8-0.1 20.5-0.7 26-1.3 8.1-0.8 10.6-1.5 13.3-3.5 1.7-1.4 3.5-3.3 3.9-4.3 0.4-0.9 1.3-2.4 2.1-3.2 1-1 1.3-2.7 0.9-5-0.4-2.2-0.1-4 0.8-5 0.7-0.8 1.6-3.2 1.9-5.3 0.5-3.3 0.4-3.7-1.6-3.8-1.3 0 0.5-0.8 3.8-1.7 3.4-1 6.9-2.4 7.8-3.2 0.9-0.8 1.7-2.3 1.6-3.3 0-0.9-1.4-4.4-3-7.7-1.7-3.3-3.1-6.2-3.2-6.4-0.2-0.3 1.3-1.9 3.1-3.5 1.9-1.7 3.7-2.8 4-2.5zm-172.2 26.5c0.7 0 1.3 0.3 1.3 0.9 0 0.6-0.6 1-1.3 1-0.6 0 0.6 0.9 2.8 1.9 2.2 1 6.2 2.2 9 2.6 2.7 0.4 7.8 1.6 11.2 2.6 4.4 1.3 7.1 2.9 9 5.1 1.6 1.7 4.1 5.1 5.8 7.5 1.6 2.3 4.1 5 5.5 5.8 1.4 0.8 3.7 2 5.3 2.7 1.5 0.7 2.7 1.6 2.7 2 0 0.5 2.4 1.1 5.2 1.4 3.1 0.4 4.7 0.8 6.7 2.4h-19.9l-0.1 14.2c-0.1 7.9-0.3 15.2-0.4 16.3-0.1 1.1-0.2 3.2-0.3 4.7-0.1 1.6-0.6 2.6-1.2 2.3-0.6-0.3-1-1.7-1-3.3 0-1.5-1-4.3-2.1-6.2-2-3.2-2.2-5.3-2.6-21.5-0.3-13.3-0.8-18.8-1.9-21-0.8-1.7-2.5-4.2-3.7-5.7-2.2-2.7-2.2-2.8-21.7-3.8-13.1-0.8-19.7-1.5-20.2-2.3-0.3-0.7-0.5-2.1-0.2-3.2 0.2-1.1 1.1-2.7 2-3.5 0.8-0.8 3.2-1.8 5.2-2.1 2-0.4 4.3-0.7 4.9-0.8zm63.3 35.9q0 0.1 0.1 0.1-0.1 0-0.2-0.1zm0.1 0.1c1.1 0.8 2.3 2 3.9 3.5 4 3.9 6.4 5.5 8.5 5.6 1.7 0.1 3.9-0.2 5-0.7 1.1-0.4 3.8-2.4 9.9-8l-2.2 3.2c-1.8 2.8-2.2 4.8-2.2 12.5-0.1 5.1-0.4 14.6-0.8 21-0.4 6.4-1.1 12.2-1.7 12.8-0.6 0.7-2.8 0.8-6.3 0.3-5-0.8-5.3-1-6.1-4.3-0.5-1.9-1.4-11.6-2.1-21.5-1.1-16.3-1.4-18.3-5.9-24.4zm3.9-33.7c15.2 0 21.2 0.2 13.5 0.3-7.7 0.2-20 0.2-27.5 0-7.4-0.1-1.1-0.3 14-0.3zm47.5 85.1c1 0.3 1.8 2.3 2.1 5.2 0.4 2.7 1.4 5.9 2.2 7.3 0.9 1.4 2.6 3.4 3.9 4.5 1.2 1.1 2.3 2.6 2.3 3.2 0 0.8-1.2 1.3-3 1.3-2.3 0-3.1 0.5-3.5 2.2-0.2 1.3-0.6 6.8-1 22.3l-1.4-4.5c-0.8-2.5-2.1-4.8-2.8-5.3-0.7-0.4-1.2-1.5-1.2-2.5 0-0.9-0.7-2.4-1.6-3.2-0.8-0.8-1.5-2.1-1.5-2.8 0-0.7-1.2-1.2-3-1.2-1.7 0-3.2-0.6-3.5-1.5-0.3-1-1.7-1.5-4-1.5-1.9 0-3.6 0.3-3.9 0.7-0.2 0.5-5.9 0.8-12.7 0.7-6.8-0.1-15.5-0.4-19.4-0.9-3.8-0.4-9.9-1.4-13.5-2.2-3.5-0.8-8.6-1.5-11.2-1.4-2.6 0.1-6.2 0.9-8 1.8-1.8 0.9-5.1 2.9-7.3 4.4-2.8 1.9-4.2 2.4-4.7 1.6-0.4-0.8-1-0.3-1.6 1.3-0.8 2.4-1 2.3-4-3-1.7-3-3.2-5.8-3.2-6.3 0-0.4 0.8-0.8 1.8-0.9 0.9 0 2.2-0.2 2.7-0.3 0.6-0.2 4.4-0.3 8.5-0.4 6.9-0.1 7.9-0.3 11.8-3.3 3-2.4 4.3-4 4.2-5.8 0-1.4 0.4-4 0.8-5.8q0.7-3.2 2.5-3.2c1.5 0 1.7 1 1.7 6.7 0.1 3.8 0.4 7.3 0.8 7.9 0.4 0.6 2.2 1.9 4 2.8 2.7 1.3 6.5 1.6 22.5 1.5 10.6 0 20.6 0 22.2 0 1.7 0 6.4 0 10.5 0 4.2 0 7.6-0.1 7.7-0.2 0.1-0.1 0.4-4 0.6-8.7 0.2-4.7 0.7-9.1 1-9.7 0.4-0.7 1.4-1 2.2-0.8zm28.7 47.5c13.9 0 27 0.4 29.1 0.8 3.2 0.6 3.8 1.1 3.7 3.2 0 2.5-0.1 2.5-8 2.5-4.4 0-8-0.3-8-0.8 0-0.4-5.5-0.7-12.2-0.7-8.9 0-14.3-0.5-19.8-1.9-4.1-1.1-7.8-1.8-8.2-1.5-0.4 0.2-1 0-1.4-0.6-0.4-0.7 8.1-1 24.8-1z"/><path class="n" d="m245 87.7c1.9 0.2 5.3 0.2 7.5 0 2.2-0.2 0.6-0.4-3.5-0.4-4.1 0-5.9 0.2-4 0.4zm20.8 87.7c-0.2 21.7 0 42.5 0.3 46.3 0.3 3.7 0.7-14 0.7-39.5 0.1-25.4 0-46.2-0.2-46.2-0.3 0-0.6 17.7-0.8 39.4zm86.6 105.1c0 6.1 0.1 8.3 0.3 5 0.2-3.3 0.2-8.2 0-11-0.2-2.7-0.3-0.1-0.3 6zm-5.1 31.5c0 4.7 0.2 6.5 0.4 4 0.2-2.5 0.2-6.3 0-8.5-0.2-2.2-0.4-0.2-0.4 4.5zm67.2 7.7c2.8 0.2 6.8 0.2 9 0 2.2-0.2-0.1-0.3-5-0.3-4.9 0-6.7 0.1-4 0.3z"/><path class="o" d="m266.4 91.8c0.2 2-0.3 5.7-1 8.2-1 3.1-1.4 10.5-1.4 24.5 0 11 0.4 23.6 0.8 28l0.7 8 1-26c7.4-0.4 9.5-0.9 9.5-1.5 0-0.6-0.8-1-1.7-1-1.5 0-1.6-0.2-0.3-0.9 1.3-0.8 1.2-1-0.5-1.4l-2-0.5c3.8-0.1 3.9-0.6 3.2-3.4-0.5-1.8-1.3-8-1.7-13.8-0.5-5.8-1.2-11.6-1.6-13l-0.8-2.5-1.4 5c-0.3-3.9-0.5-5.8-0.8-6.7-0.2-1 0.1-1.8 0.6-1.8 0.6 0 1 0.5 1 1 0 0.6 0.5 1 1 1 0.6 0 1-0.7 1-1.5 0-0.9-0.9-1.5-2.2-1.5l-2.3-0.1c3.5-1.9 4.2-2.7 3.8-3.2-0.4-0.4-1.8-0.7-3-0.7-2 0-2.2 0.4-1.9 3.8zm-1.5 100.2c-0.4 3.6-0.7 9.9-0.8 14-0.1 5.5 0.1 7 0.9 5.8 0.6-1 0.9-7.1 0.8-14-0.3-10.6-0.4-11.4-0.9-5.8zm104.6 18c1.5 0.8 0.9 0.9-2.5 0.5-2.9-0.3-3.8-0.2-2.5 0.3 1.3 0.6-0.2 0.9-4.7 0.9-3.8 0-7.1 0.3-7.5 0.6-0.5 0.4-0.6 0.9-0.3 1.2 0.3 0.3 7.8 0.8 16.8 1.2 8.9 0.5 16.2 0.5 16.2 0.1 0-0.5-1.9-1.7-4.2-2.7-2.4-1.1-6.3-2.2-8.8-2.5-3.4-0.4-4-0.3-2.5 0.4zm-104.5 8.5c-0.2 1.7-0.4 7.2-0.4 12.3l-0.1 9.2c5.9 0 8.2-0.6 8.9-1.2 0.7-0.7 1.6-2.4 2.1-3.8 0.4-1.4 1.3-2.8 1.9-3.2 0.6-0.3-1.6-0.6-4.9-0.5l-6 0.2c-0.9-12.4-1.3-14.7-1.5-13zm79.4 20.5c0.3 0.6 1.3 0.8 2.1 0.5 0.8-0.3 1.7-0.1 2 0.5 0.3 0.6 0.1 1-0.5 1-0.6 0-1 9.4-1 26.3 0 14.4 0.3 33.3 0.8 42 0.6 13 1 15.7 2.2 15.7 0.9 0 1.6-1 1.6-2.7 0.1-1.6 0.3-14.9 0.4-29.8l0.2-27c12.7 0.4 15.8 0.1 15.8-0.5 0-0.6-2.4-1.2-5.2-1.5-2.9-0.2-6.1-0.5-7-0.5-1 0-1.7-0.6-1.5-1.2 0.1-0.7-0.2-1.2-0.8-1.1-0.6 0.1-0.8-2.9-0.3-8.5 0.3-4.8 0.7-9.5 0.7-10.4 0.1-1.6 1.2-1.8 8.6-1.8 5 0 8.5-0.4 8.5-1 0-0.6-5.2-1-13.6-1-8.8 0-13.4 0.4-13 1zm36.4 40.6c-2.7 0.4-2.8 0.6-2.8 6.7 0 3.4-0.2 11.8-0.5 18.7-0.2 6.9-0.1 11.1 0.3 9.5 0.5-2.1 1.4-3.1 3-3.2 1.7-0.2 2.2 0.2 2.2 2.2 0 1.4 0.5 2.7 1 3 0.6 0.3 1-6.2 1-18.5 0-10.4-0.3-18.9-0.7-18.9-0.5 0.1-2 0.4-3.5 0.5zm-107.6 34.1c0.2 10.7 0.6 14.7 1.6 15 0.7 0.2 1.3-0.8 1.3-2.5 0.1-2.2 0.2-2.3 0.5-0.5 0.2 1.3 0.9 2.1 1.4 1.8 0.6-0.3 1-6.2 1-14.5v-14h-6.1zm139.8-1.2c0.3 0.2 4.1 0.5 8.5 0.6 4.4 0.1 8.5 0.4 9 0.7 0.6 0.3 0.4 0.9-0.5 1.3-0.9 0.6 1.2 0.8 5.5 0.8 7-0.2 7-0.2 2-0.9-2.7-0.3-4-0.7-2.7-0.8 1.2-0.1 2.2-0.6 2.2-1.2 0-0.6-4.7-1-12.2-1-6.8 0-12.1 0.2-11.8 0.5zm-149 80c0 16.4 0.4 28.3 1 29.5 0.6 1.1 1.1 4.5 1.3 7.5 0.2 5.3 0.3 5.5 3 5.5 1.5 0 2.7-0.2 2.7-0.5 0-0.2-0.9-1.3-2-2.2-1.8-1.5-2-2.5-1.4-6.3 0.6-3.9 0.8-4.2 1.8-2.5 1 1.9 1.1 1.8 1.7-1 0.4-1.6 0.7-11.9 0.8-22.7 0.1-10.9-0.3-23.1-0.9-27.3l-1-7.5h-7z"/><path fill-rule="evenodd" class="p" d="m265 88c0.6 0 1 0.6 1.1 1.3 0.1 0.6 0.2 2.3 0.3 3.7 0.2 1.4-0.3 4.3-1 6.5-1.2 4-1.2 3.9-1.3-3.8-0.1-4.5 0.3-7.7 0.9-7.7zm11.5 0.5c3.3 0.4 10.3 1.3 15.5 2.1 5.2 0.8 13.3 2.4 18 3.5 4.7 1.1 11.9 3.2 16 4.6 4.1 1.4 10.9 3.9 15 5.6 4.1 1.7 10.4 4.7 13.9 6.6 3.5 2 6.5 3.9 6.7 4.4 0.2 0.4-0.2 1-0.8 1.5q-1.3 0.7-0.5-0.5c0.4-0.7 0.3-1.5-0.3-1.8-0.6-0.3-1 0.2-1 1 0 1-1.6 1.8-4.8 2.5-2.6 0.5-8.9 1.7-23.4 4.5l0.5 3.5c0.3 1.9 2.1 12.3 4.1 23 1.9 10.7 4 22 4.6 25 0.5 3 1.9 10.4 3 16.5 1.1 6.1 2.3 13.8 3.5 23.5h-2.8c-1.5 0-2.9 0.3-3.1 0.8-0.2 0.4-0.5 5.9-0.7 12.2-0.2 11.3-0.2 11.5 1.9 11.3 1.2-0.2 2.4 0 2.6 0.5 0.2 0.4-2.6 1-6.2 1.4-3.7 0.5-8.8 0.8-16.2 0.8v10.3c0 5.6-0.3 11.8-1.2 17.2l-35.3-2.6-3 3.6c-2.4 2.9-3.6 3.6-9 3l-0.3-17.3c-0.1-10.9 0.2-17.2 0.8-17.2 0.6 0 1.3-1.2 1.6-2.7 0.3-1.6 1.1-3.1 1.7-3.5 0.7-0.4 4.2-0.8 14.7-0.8v-39.5l20 1.5v-22l-19.5-0.5v-12l30-0.5 0.7-3.8c0.4-2 0.8-7 0.8-18.2l-5.3-0.1c-2.8 0-13.5-0.4-23.6-0.7-13.4-0.5-18.5-1-18.8-2-0.1-0.6-1.1-1.2-2.1-1.2-1.4 0-1.5-0.2-0.2-1 1.3-0.8 1.2-1-0.5-1.1-1.6-0.1-1.7-0.2-0.3-0.5 1.4-0.3 1.7-1.1 1.2-3.7-0.3-1.7-1-7.9-1.4-13.7-0.5-5.8-1.2-11.6-2.4-15.5l-1.4 5-0.2-2.5c-0.1-1.4-0.3-3.3-0.6-4.3-0.2-0.9 0-1.7 0.6-1.7 0.6 0 1 0.5 1 1 0 0.5 0.4 1 1 1 0.6 0 1-0.7 1-1.5 0-0.9-0.9-1.5-4.5-1.6l2.3-1.2c1.2-0.7 1.9-1.6 1.5-2-0.4-0.5 1.9-0.6 5.2-0.2zm123 55.5c0.8 0 4.9 3.7 9.1 8.2 4.2 4.6 11.2 13.7 15.6 20.3 4.4 6.6 10.4 16.9 13.3 23 2.9 6.1 6.4 14.4 7.8 18.5 1.5 4.1 3.4 10.7 4.3 14.5 0.9 3.8 2.2 11.1 3 16 0.7 4.9 1.4 13.2 1.4 18.3 0 6.7-0.3 9.2-1.3 9.2-0.6 0-2.7-1.2-7.7-5h-53.5l-3.7 3.7c-2 2.1-3.8 4.9-4 6.3-0.2 1.7-1 2.6-2.6 2.7-2.1 0.3-2.2 0-1.7-13.7h-5.8c-3.1 0-5.7-0.4-5.7-1 0-0.6 1.2-1 2.7-1 1.6 0.1 3.7-0.9 4.8-2.1 1.4-1.5 2.4-4.8 3.2-10.3 0.8-5.2 0.9-8.7 0.2-9.9-0.5-0.9-2-1.7-3.4-1.7-1.4 0-2.5-0.4-2.5-1 0-0.6 5.5-1 29-1v-23l-7.3-0.1c-3.9-0.1-7.6-0.2-8.2-0.3-0.6-0.1-2.8-1-5-2.1-2.2-1-5.4-2.2-10-3.2l3.2-0.2c1.8 0 5-0.7 7-1.5 2.1-0.8 8.7-2.2 14.7-3.2 5.9-1.1 11-2.2 11.2-2.7 0.2-0.4-1.6-12.3-4.1-26.4-2.5-14.2-4.7-27-5-28.6-0.3-1.9 0-2.7 1-2.7zm-134.5 12c0.5 3 0.8 10.7 0.8 17 0 6.3-0.3 13.5-0.7 16-0.6 2.9-0.8-3.2-0.8-17 0-14 0.2-19.6 0.7-16zm182.6 154c0 0 0.1 1.4 0.4 6l-7.2-0.6c-4-0.4-7.5-0.8-7.8-1.1-0.3-0.2 0.5-0.3 1.8-0.3 1.2 0 2.2-0.3 2.2-0.7 0-0.5 1.6-0.9 3.5-1 1.9-0.2 4.3-0.7 5.3-1.3 0.9-0.5 1.7-1 1.8-1zm-66.6 1c1.5 0 2 0.7 2 2.5 0 1.4 0.4 2.7 1 3 0.6 0.3 1 4.1 1 16.5l4 2c3.6 1.8 6 2 49 2l-1.5 3.8c-0.9 2-2.6 5.2-3.8 6.9-1.2 1.8-2.5 3.3-3 3.3-0.4 0-0.7-0.6-0.7-1.2 0-1-9.5-1.5-42.2-2-23.3-0.5-42.4-0.7-42.4-0.5-0.1 0.1-0.4 7.5-1.4 32.7l65.2 0.5-5.9 5.7c-3.2 3.2-8.7 7.9-12.3 10.6-3.6 2.7-9.8 7-13.8 9.5-3.9 2.6-12 7.1-18 10.1-5.9 2.9-15.6 7-21.7 8.9-6.1 2-13 4.1-15.5 4.7-2.5 0.7-8.3 1.8-13 2.6-4.7 0.8-14.4 1.7-21.5 2.1-12.8 0.7-13 0.6-15.8-1.8-2.5-2.2-2.7-2.9-2.1-6.9 0.5-4.1 0.7-4.3 1.9-2.5 1.2 1.8 1.4 1.5 2-3.5 0.4-3 0.4-15.4 0.1-27.5-0.3-12.1-0.7-28.8-1.1-52l-3.8-0.3c-2.5-0.1-3.7-0.7-3.7-1.7 0-0.8 0.4-1.5 1-1.5 0.6 0 0.8 0.4 0.5 1-0.3 0.6 0.9 1 2.7 0.9 2.8 0 3-0.2 1.3-1-1.7-0.7-1.5-0.8 1-0.6 2.9 0.2 3 0 3.2-4.1 0.2-2.3 0.7-4.2 1.3-4.2 0.6 0 1-1.2 1.2-5.5l0.8 2.5c0.4 1.4 0.8 2.2 0.9 1.7 0.1-0.4 2.2 1.5 9.6 9.3h20.2c11.2 0 20.3-0.3 20.3-0.8 0-0.4 0.7-0.7 1.5-0.7 0.8 0 1.5 0.3 1.5 0.7 0 0.5 3.8 0.8 17 0.8v-6c0-5.3 0.2-6 2-6 1.8 0 2 0.7 2 12l10.7-0.6c6-0.3 11.4-0.7 12-1 0.8-0.2 1.3-2.2 1.3-5.2 0-2.6 0.5-7.4 1-10.7 0.6-3.3 1.3-6.6 1.5-7.3 0.3-0.6 1.4-1.2 2.5-1.2zm32.1 1.4c0.5 0.3 4.4 0.6 8.6 0.7 4.3 0.1 8.1 0.3 8.5 0.5 0.5 0.2-0.2 1.2-1.5 2.2-1.2 1.1-4 2.2-6.2 2.5-2.2 0.4-5.7 0.3-7.7-0.1-3.2-0.6-3.6-1-3.3-3.2 0.2-1.4 0.4-2.6 0.5-2.8 0.1-0.2 0.6-0.1 1.1 0.2zm-148.2 109.6c0.5 0.8 1 3.5 1.1 6 0.1 2.5 0.1 5.1 0.1 5.8-0.1 0.6-0.6 1.2-1.1 1.2-0.6 0-1-3.1-1-7.2 0-4.7 0.4-6.8 0.9-5.8z"/><path class="q" d="m51 158.7c1.9 0.2 5.3 0.2 7.5 0 2.2-0.2 0.6-0.4-3.5-0.4-4.1 0-5.9 0.2-4 0.4zm402.8 107.3c-0.2 3.9 0 7 0.4 7 0.5 0 0.8-3.1 0.8-7 0-3.9-0.2-7-0.4-7-0.3 0-0.6 3.2-0.8 7z"/><path class="r" d="m77.5 336.7c1.7 0.2 4.8 0.2 7 0 2.2-0.2 0.8-0.4-3-0.4-3.8 0-5.7 0.2-4 0.4z"/><path class="s" d="m397 138c0 0.8 4.3 6 9.7 11.5 5.4 5.5 9 9.1 8.1 8-1.7-1.9-1.7-2.1 0-3.9 1.6-1.9 1.6-1.9 0-0.8-1.6 1-2.8 0.3-8.5-5-3.8-3.5-7.3-7.4-8-8.8-0.6-1.4-1.2-1.9-1.3-1zm-303.6 22.3c-0.3 0.8-0.4 4.7-0.2 8.7l0.3 7.3c7.7-12.2 10.1-16.1 10.2-16.5 0.2-0.4-2-0.8-4.7-0.8-3.3 0-5.2 0.5-5.6 1.3zm345 27.9c0.3 1 0.4 2.2 0.1 2.8-0.3 0.6-1.2 0.2-2-0.7-0.8-1-0.5 0.3 0.8 2.9 1.2 2.6 2.3 4.3 2.5 3.8 0.1-0.6-0.2-1.8-0.8-2.7-0.6-1.2-0.6-2.1 0.1-2.8 0.8-0.7 0.7-1.6-0.1-3-0.8-1.4-1-1.5-0.6-0.2z"/><path class="t" d="m272.3 80.6c-0.7 0.2-1 1-0.6 1.7 0.5 1 0.3 1-1 0-0.9-0.7-2.3-1-3-0.7-0.9 0.5-0.8 0.9 0.3 1.6 1.1 0.7 0.9 0.8-0.8 0.4-1.2-0.3-2.4-0.1-2.7 0.4-0.3 0.6-1.1 0.7-1.8 0.4-0.9-0.5-0.9-0.9 0.3-1.5 1-0.6 0.5-0.9-1.8-0.9-1.8 0-3 0.4-2.7 1 0.3 0.6-0.2 1-1 1-0.8 0-1.3-0.4-1-1 0.3-0.5-0.3-1-1.3-1-0.9 0-2.6 0.7-3.7 1.5-1.9 1.4-1.8 1.5 2 1.5 2.9 0 3.6 0.3 2.5 1-1 0.7 0.9 1 6.5 1.1 4.4 0 11.6 0.2 16 0.5 4.4 0.2 10 0.8 12.5 1.3 2.5 0.6 6.2 1.2 8.2 1.5 3.1 0.5 3.9 0.3 4.2-1.1 0.3-1.5 0.5-1.5 1.2 0.4 0.6 1.5 2 2.4 4.4 2.8 1.9 0.4 7.1 1.8 11.5 3.1 4.4 1.4 11.6 3.9 16 5.6 4.4 1.6 11.1 4.6 15 6.5 3.9 1.9 8.5 4.3 10.2 5.4 3.1 1.8 4 1.8 14.3 0.7 6.1-0.7 11-1.6 11-2 0-0.5-1.7-1.1-3.8-1.5-2-0.3-5.1-0.7-6.7-0.8-1.6-0.1-5.7-1-9-1.9-3.3-0.9-8.1-2.8-10.8-4.1-2.6-1.4-4.1-2.7-3.5-3 0.7-0.2-0.1-0.1-1.7 0.2-2.2 0.5-2.8 0.4-2.3-0.5q0.8-1.2-2-1.6c-1.5-0.2-6.1-1.3-10.2-2.5-4.1-1.2-8.2-2.4-9-2.8-0.8-0.3-2.6-0.6-3.8-0.7-1.3-0.1-2.6 0.2-2.8 0.7-0.2 0.4-1.3 0.7-2.4 0.7-1.1 0-2.9-0.9-4-2-1.3-1.3-2.6-1.7-3.6-1.2-1.2 0.5-1.5 0.3-1.3-0.8 0.3-1.1-0.4-1.5-2.5-1.5-1.6 0-3.1-0.6-3.3-1.2-0.1-0.7-1.2-1.3-2.3-1.3-1.1 0-2.2-0.4-2.5-1-0.3-0.5 0.6-1 2-1 1.4 0 2.3-0.4 2-1-0.3-0.5-3.6-1-7.5-1-3.9 0-7.2 0.5-7.5 1q-0.5 1-2.5 0-2-1-2.5 0c-0.3 0.6-1 1-1.6 1-0.6 0-0.3-0.7 0.5-1.5 0.9-0.8 2.5-1.3 3.6-1 1.1 0.3 2 0.1 2-0.5 0-0.6-3-1-7.3-0.9-3.9 0-7.8 0.2-8.5 0.5zm-89.3 17.2c-2.6 0.9-5.3 2.2-6 2.8-0.8 0.6-4.7 2.6-8.8 4.5-4 1.9-8.1 4.3-9 5.4-1.5 1.9-1.5 1.9 0.3 0.5 1.1-0.8 5.8-3.3 10.5-5.6 4.7-2.2 10.7-4.9 13.3-6 2.7-1 4.8-2.2 4.8-2.6 0-0.5-0.1-0.8-0.3-0.7-0.1 0-2.3 0.8-4.8 1.7zm210.2 19c-0.1 0.6 0.9 5.4 2.1 10.5 1.1 5 2.6 10.3 3.2 11.7 0.6 1.4 4.2 5.5 8 9 3.9 3.6 7.1 5.9 7.3 5.3 0.2-0.7 0.8-1.3 1.5-1.3 0.8 0 0.7 0.6-0.4 1.8-1.5 1.6-1.3 2.1 3.4 8.2 2.8 3.6 5.7 6.4 6.5 6.3 0.8-0.2 1.3 0.6 1.3 2.2 0 1.4 0.9 3.9 2 5.5 1.1 1.7 2.3 2.8 2.7 2.6 0.5-0.2 0.8 0.6 0.9 1.7 0.1 1.2 2 5.1 4.2 8.7 2.3 3.6 4.2 7.3 4.2 8.3 0 0.9 0.3 1.7 0.7 1.7 0.5 0 0.9 0.8 0.9 1.7 0.1 1 1.3 4.3 2.6 7.3 1.3 3 3.2 7.8 4.1 10.5 0.9 2.8 1.7 5.8 1.7 6.8 0 1 0.8 1.7 2 1.7 1.1 0 2 0.4 2 1 0 0.6-0.7 1-1.5 1-0.8 0-1.5 0.9-1.5 2 0 1.2 0.7 2 1.7 2 1.3 0 1.4 0.2 0.5 0.8-0.7 0.4-1 1.5-0.7 2.5 0.3 0.9 0.9 1.7 1.5 1.7 0.6 0 1.2-0.8 1.4-1.7 0.2-1 0.4 0 0.5 2.2 0.1 3.8 0.1 3.9-1.4 2-1.5-1.9-1.5-1.8-1 1.5 0.4 1.9 0.8 4.9 1 6.5 0.3 1.7 0.5 8.4 0.5 15 0 6.6-0.5 16.5-1 22-0.5 5.5-1.4 12.7-1.9 16-0.6 3.3-1.5 7.6-2 9.5-0.6 1.9-1.1 4.1-1.1 4.8 0 0.6 0.8 1.5 1.7 1.8 1.4 0.5 1.6 0.2 1-1-0.4-1-0.2-1.8 0.8-2.1 1.1-0.4 1.4-1.8 1.2-5.4-0.1-2.7 0.1-4.7 0.5-4.5 0.5 0.2 0.6-1.2 0.3-3.1-0.3-1.9-0.1-4.1 0.4-4.7 0.5-0.7 0.8-3.5 0.6-6.3-0.3-3.6 0.2-5.9 1.6-8.2 1.2-2.2 1.7-4.3 1.3-6-0.3-1.8 0.1-3.9 1.3-5.9 1-1.7 2.4-2.9 3-2.7 0.8 0.2 1.3-0.6 1.3-1.9 0-1.3-0.7-4.1-1.6-6.3-1.1-2.7-1.3-4.1-0.5-4.2 0.6-0.2 1.1-1.1 1.1-2 0-1-0.5-2.5-1-3.3-0.9-1.3-1.2-1.2-2.4 0.5-1.4 1.9-1.5 1.6-2.1-3-0.3-2.7-0.3-5.8 0-6.7 0.3-1 0.9-1.8 1.5-1.8 0.6 0 0.8-0.4 0.5-1-0.3-0.6-0.9-0.8-1.5-0.5-0.6 0.3-1-0.4-1-1.5 0-1.1-0.3-2-0.8-2-0.4 0-0.7-3.7-0.6-8.3 0.1-4.5-0.3-10.7-0.8-13.7-0.6-3.9-1.6-6.3-3.6-8.2-1.5-1.5-3.1-2.4-3.7-2-0.6 0.4-0.7 0-0.2-1 0.4-1 0.4-1.6-0.1-1.3-0.4 0.2-1.5-1.1-2.5-3-1.1-2.3-2.2-3.3-3.2-3-1.2 0.4-1.3 0.2-0.4-1.2 0.9-1.4 0.8-2.5-0.4-4.8l-1.6-3c0.9 4.7 0.8 6.3 0.3 6.7-0.5 0.3-1-0.6-1.2-2-0.1-1.5-1-3.5-2-4.6-0.9-1-1.7-2.6-1.8-3.5 0-0.9-0.8-3.2-1.6-5.1-0.8-1.9-1.4-5.1-1.2-7 0.4-3.4 0.4-3.4-0.6-0.7-0.6 1.5-1.6 2.7-2.3 2.7-0.8 0.1-0.8-0.4 0.3-1.6 1.4-1.6 1.3-1.7-0.3-1.1-1.1 0.5-1.6 0.3-1.5-0.5 0-0.7 0.1-2 0-2.8-0.1-0.8-1.3-2.1-2.7-2.7-1.4-0.7-3.1-1-3.7-0.5q-1.3 0.7-0.5-0.5c0.4-0.7 1.4-1.1 2.2-0.8 0.9 0.3 1.5-0.1 1.5-1 0-0.8-0.4-1.5-1-1.5-0.6 0-1-0.4-1-1 0-0.6-1.2-2.8-2.8-5-1.5-2.2-3-4-3.5-4-0.4 0-0.7-0.6-0.7-1.2 0-0.7-1.2-1.9-2.8-2.6-1.5-0.7-3.1-1.2-3.7-1.2-0.6 0-2.1-0.9-3.5-2-1.4-1.1-2.2-2-1.8-2 0.5 0-0.3-2.6-1.6-5.7-1.4-3.2-2.3-6.1-2-6.5 0.2-0.5 0.1-0.8-0.4-0.8-0.4 0-1.6-1.4-2.6-3.2-1.4-2.4-1.5-3-0.5-2.3q1.4 0.9-0.1-0.5c-0.9-0.8-1.9-2.2-2.2-3-0.4-0.9-0.7-1-0.7-0.2zm-251.8 4c-1.8 0.9-3.5 2.4-3.8 3.2-0.3 0.8-0.4 1.6-0.3 1.7 0.2 0.1 1.4-0.8 2.8-2 1.4-1.3 3.4-2.8 4.5-3.5 1.1-0.6 1.6-1.1 1-1.1-0.6 0-2.4 0.8-4.2 1.7zm-7.8 5.9c-1.1 0.3-2.6 0.9-3.2 1.4-0.7 0.5-1.1 1.3-0.8 1.9 0.3 0.6-0.2 0.8-1 0.5-0.9-0.3-1.2-1-0.7-1.7 0.5-0.8-0.2-0.9-2.8-0.3-1.9 0.5-4.3 0.9-5.2 0.9-1 0.1-1.8 0.3-1.8 0.6 0 0.3-0.9 0.6-2 0.8-1.1 0.1-2-0.4-2-1 0-1-0.2-1-1.2 0-0.7 0.6-1.7 1.2-2.3 1.2-0.6 0-2.9 0.8-5.1 1.7l-3.9 1.8 12 1c1 9.5 1 9.5 3.3 8 1.6-1.1 2.2-2.5 2.2-5 0-3.3 0.2-3.5 3.3-3.5 2.2 0.1 4.7-1.1 8.5-4 2.8-2.2 5.2-4.2 5.2-4.5 0-0.3-0.1-0.4-0.2-0.4-0.2 0.1-1.2 0.4-2.3 0.6zm-88.5 9.3c-0.5 1.1-0.8 2.3-0.6 2.8 0.3 0.4 0.7-0.3 1-1.5 0.6-2.1 1.3-2.3 8.4-2.6l7.7-0.3c-14.5-0.4-15.6-0.2-16.5 1.6zm13.6 23.8c-0.2 0.4-0.5 2.3-0.7 4.2-0.2 1.9 0.3 5.1 1 7 1.3 3.2 1.2 3.9-0.7 7.8-1.2 2.3-2.7 7.5-3.2 11.5-0.6 3.9-1.3 7.9-1.6 8.7-0.3 0.9 1.4 3.6 3.9 6.5 2.3 2.8 5.3 6.3 6.5 8l2.3 3c-0.1-47.2-0.5-57.5-1.1-57.5-0.5 0-1.6 2.1-2.4 4.8l-1.5 4.7c-0.1-7.4-0.5-9.5-1.1-9.5-0.5 0-1.1 0.3-1.4 0.8zm7.6 74.2c-0.7 1.1-1.2 2.7-1.2 3.5 0 0.8-1.1 1.9-2.5 2.5-1.4 0.6-2.5 1.1-2.5 1.3 0 0.1 2.9 0.1 6.5 0 3.6-0.2 6.5-0.4 6.6-0.5 0-0.2 0.2-2.2 0.5-4.5 0.4-4.3 0.4-4.3-2.9-4.3-2.2 0-3.7 0.6-4.5 2zm-9.1 51.8c-1.2 5.9-3.8 14.8-5.8 19.7-2 4.9-3.8 10.8-4 13-0.4 3.6-0.1 4.4 3.4 7.8 2.1 2 4.8 3.8 6 4 1.1 0.1 1.9 0.5 1.7 1-0.2 0.4 0.1 0.9 0.6 1.2 0.7 0.3 1-9.5 1-28.5 0-15.9-0.1-29-0.3-29-0.2 0-1.3 4.8-2.6 10.8zm389.6 50.1c-0.4 0.6-1.8 1.1-3.1 1.1-1.7 0-3.3 1.2-5 3.8-1.5 2-3.8 5.4-5.1 7.5-1.4 2-2.9 5.6-3.5 8-0.5 2.3-0.9 5.1-0.9 6.2 0 1.8 0.1 1.7 1.3-0.5 0.8-1.4 1.3-2.7 1.1-3-0.2-0.3 0.7-0.6 1.8-0.7 1.2-0.1 2.3-0.7 2.4-1.3 0.2-0.5 1.2-1 2.3-1 1.4 0 2.7-1.5 4.4-5.2 1.4-2.9 2.6-6.4 2.8-7.8 0.2-1.4 0.7-3.1 1.1-3.7 0.4-0.7 0.4-1.3-0.1-1.3-0.4 0 0-0.4 0.8-1 0.8-0.5 1.2-1.2 0.9-1.5-0.3-0.4-0.9-0.2-1.2 0.4zm-356.6 2c-0.1 0.6 0.5 1.1 1.2 1.1 0.9 0 0.9 0.2 0 0.8-0.8 0.5-0.8 1.2 0.3 2.7 1 1.5 1.4 1.6 1.4 0.5 0-0.9 0.6-0.5 1.6 1 0.9 1.4 2.4 3.1 3.3 3.8 1.4 1.1 1.4 1.2-0.4 1.2h-2c3.1 2.2 4.3 2.6 4.8 2.4 0.4-0.2 1.8 1.3 3.1 3.4 1.3 2 4.2 5.6 6.5 8 2.3 2.3 4.1 3.9 4.1 3.5 0.1-0.5-0.7-1.5-1.6-2.3-0.9-0.8-4-4.9-6.9-9-2.8-4.1-6.5-9.7-8.1-12.5-1.8-3.2-3.7-5.1-5.1-5.3-1.2-0.2-2.2 0.2-2.2 0.7zm27.5 33.6c1.6 2.2 4.7 5.8 6.9 8 2.3 2.2 4.9 4.3 5.8 4.8 0.9 0.4 1.7 1.4 1.7 2.2 0 0.8 0.5 1.3 1 1 0.6-0.3 1 0.2 1 1 0 0.8 0.5 1.3 1 1 0.6-0.3 1.2-0.1 1.5 0.5 0.3 0.6 1.5 1.5 2.8 2.1 1.5 0.7 1.1 0-1.3-2.1-1.9-1.8-8-7.6-13.4-12.9-5.9-5.7-8.7-8-7-5.6zm286.1 15.2c-4 3.7-7.3 7.1-7.5 7.5-0.1 0.5 0.1 0.8 0.5 0.8 0.5-0.1 1.3-0.8 1.9-1.8 0.9-1.4 1.1-0.9 1 2.4-0.1 2.8-0.5 4-1.4 3.8-0.6-0.2-1.2 0-1.2 0.6 0 0.6 0.6 1 1.2 1 0.7 0 2.2-0.6 3.3-1.5 1.1-0.8 1.6-1.4 1-1.5-0.6 0-1.1-0.8-1.2-1.7q-0.2-1.8 3.3-3c2.7-1 3.6-2.1 4.4-5 0.5-2.1 0.7-4.1 0.5-4.5-0.3-0.5 0.2-0.6 1-0.3 0.8 0.3 2.5-0.1 3.7-0.9 1.3-0.7 3.2-1.6 4.3-1.9 1.1-0.2-0.2-0.5-2.8-0.6-4.6-0.1-5.1 0.2-12 6.6zm-11.2 9.7c-1.1 0.7-1.9 1.8-1.7 2.5 0.1 0.6-0.2 0.9-0.8 0.6-0.6-0.3-2.9 1-5.3 2.8-2.3 1.7-5.4 3.9-6.9 4.7-1.5 0.8-2.6 1.7-2.4 2 0.2 0.3-0.1 0.5-0.7 0.6-0.7 0.1-4.2 1.7-8 3.8-3.7 2-6.7 4-6.7 4.6 0 0.6-0.4 0.8-1 0.5-0.6-0.3-2.5 0.2-4.3 1.1-1.7 0.8-6.1 2.7-9.7 4-3.6 1.4-8.3 3.2-10.5 3.9-2.2 0.7-8.7 2.5-14.5 3.9-5.8 1.4-12 2.6-13.8 2.6-2.2 0-3.2 0.5-3.2 1.5 0 0.8 0.4 1.3 1 1 0.6-0.3 1.1 0 1.2 0.6 0.2 0.7 1.1 0.7 3 0 2.1-0.8 3-0.8 3.5 0.1 0.5 0.8 0.4 1-0.2 0.6-0.6-0.3-1.6 0-2.3 0.8-1 1.2-0.6 1.4 2.8 1.4 2.2 0 4-0.4 4-1 0-0.6-0.6-1.2-1.3-1.4-0.6-0.3 0.3-0.2 2.1 0.2 2.5 0.6 3.2 0.4 3.2-0.8-0.1-1.2 0.2-1.2 1.2-0.3 1 0.9 2.3 0.7 5.8-0.9 3.4-1.5 5.1-1.8 7-1 1.8 0.7 3.1 0.5 4.5-0.5 1.1-0.7 3-1.3 4.2-1.3 1.3 0 2.1-0.4 1.8-1-0.3-0.6 0.2-1 1-1 0.8 0 1.3-0.4 1-1-0.3-0.6 0.5-1.2 1.7-1.5 1.3-0.4 3.1-0.7 4.1-0.8 0.9-0.1 2.1-0.7 2.5-1.3 0.4-0.6 2.1-1.4 3.7-1.8 2.4-0.6 2.7-0.9 1.5-1.6-1.3-0.8-1.2-1 0.2-1 1 0 1.6-0.3 1.4-0.7-0.2-0.5 0.6-0.7 1.8-0.7 1.1 0.1 4.3-0.9 7.1-2.2 2.7-1.3 5.7-2.3 6.5-2.4 0.8 0 2.9-0.9 4.5-2 1.6-1.1 2.4-2 1.7-2-0.6 0-1.2-0.4-1.2-1 0-0.6 1.5-1.7 3.2-2.7 1.8-0.9 5.1-3.4 7.3-5.6 2.3-2.4 3.5-4.2 2.7-4.4-0.6-0.2-1.2-0.7-1.2-1.3 0-0.6 0.8-0.5 2 0.3 1 0.6 2.3 0.9 2.7 0.5 0.4-0.5 0.6-1 0.3-1.2-0.3-0.2-1.4-0.6-2.5-0.9-1.1-0.4-2.9 0-4 0.7zm-100.6 39.1c-0.3 0.2-8.6 0.5-18.4 0.6-9.9 0.1-18.9 0.5-20 0.9-1.7 0.6-1.6 0.7 0.8 1.1 1.4 0.2 2.7 0.1 2.7-0.3 0-0.5 0.9-0.8 2-0.8 1.1 0 2.6 0.9 3.2 2 0.8 1.2 2.4 2 4 2 1.6 0 3-0.4 3.3-1 0.3-0.6 1.1-0.7 1.7-0.4 1 0.5 0.9 0.9-0.2 1.5-0.9 0.5-1 0.9-0.3 0.9 0.7 0 1.5-0.4 1.8-1 0.3-0.6 3-1 6-1 3.3 0 5.3-0.4 5-1-0.3-0.6 0.9-1 2.7-1 1.8 0 5.5-0.2 8.3-0.4 4.6-0.4 4.7-0.4 1 0.3-3.8 0.8-3.8 0.8-1 1.1 1.6 0.2 3.5 0.4 4.1 0.4 0.6 0.1 1 0.4 0.8 0.9-0.2 0.4 0.7 0.7 2.1 0.7 1.6 0 2.5-0.6 2.5-1.5 0-0.8-0.7-1.7-1.5-2-0.8-0.3-1.3-0.9-1-1.5 0.3-0.6-1.4-1-4.3-1-2.7 0-5.1 0.2-5.3 0.5z"/><path class="a" d="m61.1 163.8v4.7c2.2-7 2.9-9.1 2.9-9.3 0-0.1-0.7-0.2-1.5-0.2-1.1 0-1.5 1.2-1.4 4.7z"/><path class="d" d="m236.4 172.5c0 7.2 0.1 9.8 0.3 6 0.2-3.8 0.2-9.7 0-13-0.2-3.3-0.3-0.2-0.3 7zm126.8-4.4c0.2 0.8 1.5 2 2.9 2.6 1.3 0.7 3.5 1.3 4.9 1.3 1.4 0 2.9-0.4 3.5-0.8 0.6-0.4 1.7-1.6 2.5-2.7 1.4-1.9 1.4-1.9-0.5-0.3-1.1 0.9-3.4 2-5 2.3-2.3 0.5-3.7 0.2-5.9-1.5-1.7-1.3-2.7-1.7-2.4-0.9z"/><path class="f" d="m219.3 176c0 4.7 0.2 6.5 0.4 4 0.2-2.5 0.2-6.3 0-8.5-0.2-2.2-0.4-0.2-0.4 4.5zm27.9 129.8l-0.2 10.2c-16.2 0-17-0.2-17.5-2-0.4-1.6-0.4-1.6-0.3 0.2 0.3 2.2 0.8 2.3 9 2.5 6.3 0.2 9-0.1 9.3-1 0.3-0.6 0.4-5.5 0.2-10.7l-0.3-9.5z"/><path class="h" d="m308.5 316.7c2.8 0.2 6.8 0.2 9 0 2.2-0.2-0.1-0.3-5-0.3-4.9 0-6.8 0.1-4 0.3z"/><path class="j" d="m233.8 159.1c0.6 0.8 1.2 5 1.5 9.4l0.3 8c-0.1-15.7-0.4-18-1.5-18.3-1.2-0.4-1.2-0.2-0.3 0.9z"/><path class="k" d="m221.1 159.8c-0.5 0.9-0.7 6.6-0.5 12.7 0.3 7.3 0.9 11.2 1.7 11.7 0.6 0.4 2.9 0.8 5 0.8 2 0 4.6-0.4 5.7-1 1.8-0.9 2-2 2-12.5 0-10.5-0.2-11.6-2-12.5-1.1-0.6-4-1-6.5-1-3.2 0-4.7 0.5-5.4 1.7z"/><path class="m" d="m84.6 260.6c-0.5 0.4-0.9 3.7-0.8 7.3 0.1 3.6 0.6 7.2 1 7.9 0.4 0.7 3.6 1.6 7.2 2.2 4.8 0.7 6.7 0.6 7.2-0.3 0.4-0.7 0.6-4 0.5-7.4-0.2-4.9-0.6-6.5-2.2-7.7-1.1-0.9-3.3-1.6-5-1.6-1.7 0-3.9-0.3-5-0.6-1.1-0.3-2.4-0.2-2.9 0.2zm147.6 30.7c-0.6 0.6-1.3 6.4-1.4 12.7l-0.3 11.5h16c0.5-14.7 0.4-20.5 0.1-22.3l-0.6-3.2c-10.3 0-13.2 0.5-13.8 1.3zm-147.7 5.4c-0.5 0.3-0.8 4.3-0.7 8.7 0.1 4.5 0.6 8.7 1 9.4 0.5 1.1 2.4 1.2 7.4 0.8 4-0.4 7.4-1.2 8.3-2.1 1-1 1.5-3.6 1.5-8.3v-6.7c-8.9-1.9-12.7-2.5-14.1-2.5-1.4 0-2.9 0.3-3.4 0.7z"/><path class="o" d="m359.4 200.8c-1 0.2-1.8 0.8-1.6 1.3 0.1 0.5-0.6 1.1-1.5 1.3-1.3 0.3-1.1 0.4 0.5 0.5 1.2 0 3.3-0.4 4.7-0.9 1.4-0.6 2.5-1.6 2.5-2.3q0-1.2-0.9 0.3c-0.5 0.9-1.1 1.1-1.4 0.5-0.3-0.6-1.3-0.9-2.3-0.7z"/><path fill-rule="evenodd" class="p" d="m370.1 123.4c2 0.1 3.6 0.5 3.7 1.1 0.1 0.5 0.4 2.2 0.7 3.7 0.5 2.6 0.2 2.8-3.3 3.4-2 0.4-6.4 1.2-9.7 2-3.3 0.7-6.3 1-6.7 0.6-0.3-0.4-0.9-2.4-1.8-8.2l5.7-1.1c3.2-0.6 6.2-1.2 6.8-1.4 0.5-0.1 2.6-0.2 4.6-0.1zm9.9 2.6c0.3 0 2.2 1.5 4.2 3.5 2.1 1.9 4 4.5 4.2 5.7 0.2 1.3 1.1 6 2 10.5 0.9 4.6 1.4 8.6 1.2 9-0.2 0.5-2.3 1.2-4.7 1.7-2.4 0.5-5.1 1-5.9 1.2-0.8 0.2-2.4-0.6-3.5-1.6-1.1-1-3.1-2.1-4.5-2.5-1.5-0.4-4.1 0-6.3 0.9-2.2 1-4.3 2.8-5.2 4.6-1.3 2.6-2.2 3.1-6.8 3.6-2.8 0.3-6 0.7-7 1-0.9 0.2-1.9-0.2-2.1-0.9-0.2-0.6-1.7-8.5-3.2-17.4-1.6-8.9-2.5-16.6-2.1-17 0.5-0.4 3-0.8 10.2-0.8l1.1 5c0.6 2.7 1.5 4.9 2 4.9 0.5-0.1 5.4-1 10.9-1.9 5.5-1 11-2.2 12.2-2.6 2-0.8 2.2-1.3 1.3-3.4-0.7-1.8-0.7-2.6 0.2-2.9 0.7-0.3 1.5-0.5 1.8-0.6zm-9.6 30c1.1 0 3 0.6 4.1 1.4 1.8 1.3 1.5 1.4-4 2.4-3.3 0.5-6.2 0.8-6.5 0.5-0.3-0.3 0.6-1.3 1.9-2.4 1.3-1 3.3-1.9 4.5-1.9zm20.3 5.1c1.4 0 2.5 0.6 2.8 1.6 0.2 1 1.1 6.1 2 11.3 0.9 5.2 1.8 9.7 2 10 0.1 0.3 0.5 3.3 1.5 13h-10l-0.8-5.6c-0.4-3.1-0.9-5.8-1.2-5.9-0.3-0.2-3.4 0.3-7 1.1-3.6 0.7-9.1 1.8-18 3.4l0.5 6.2c0.3 3.5 0.3 5.7 0 5-0.3-0.6-1.4-1-2.5-0.7-1.1 0.3-2 0.9-2 1.5 0 0.6-0.8 1.2-1.8 1.4-1 0.2-2.2-0.5-2.9-1.7-0.7-1.2-2.4-8.7-3.8-16.7-1.4-8-2.5-15.1-2.5-15.8q0-1.2 7-1.7c6.7-0.5 7.1-0.4 9.4 2.2 1.8 2.1 3.3 2.8 5.8 2.7 1.8 0 4.5-0.3 6-0.7 2.1-0.5 3.2-1.8 4.3-4.7 0.8-2.2 1.9-3.8 2.5-3.5 0.5 0.3 1 0.1 1-0.5 0-0.6 1.2-1.2 2.7-1.4 1.6-0.1 3.8-0.4 5-0.5zm-16.5 3.1c1.6-0.1 2.8 0.1 2.8 0.5 0 0.5-1 1.8-2.3 3.1-1.2 1.2-3 2.2-4 2.2-0.9 0-2.6-0.4-3.7-1-1.1-0.6-2-1.7-2-2.5 0-1 1.2-1.6 3.2-1.8 1.8-0.2 4.5-0.5 6-0.5zm10 23.9c0.5-0.1 1 0.7 1.2 1.6 0.3 1 0.7 3.3 1 5 0.3 1.8 0.1 3.5-0.4 3.8-0.6 0.3-3.8 0.7-7.3 0.9-3.4 0.2-7.2 0.8-8.5 1.5-1.4 0.7-2.2 0.7-2.2 0.1 0-0.6-0.5-0.8-1-0.5-0.6 0.3-1.4-1.4-1.8-3.8-0.5-2.3-0.8-4.3-0.8-4.4 0.1-0.2 4.4-1.1 9.6-2.2 5.2-1 9.8-1.9 10.2-2zm27.9 98.9c1.1 0.6 1.9 0.7 1.7 0.3-0.1-0.5 2-0.7 4.7-0.6 2.8 0.1 5.8 0.2 6.7 0.3 1.5 0 1.8 0.9 1.8 10h-4.3c-2.3 0-5.7-0.4-7.5-1q-3.2-1-3.2 0c0 0.5-0.5 0.8-1 0.5-0.6-0.3-1-2.8-0.9-5.5 0-4.8 0.1-5 2-4zm-107.1 12h16v17h-17.5l0.7-5.2c0.4-2.9 0.8-6.8 0.8-8.6z"/><path class="s" d="m378.6 120.9c-2.6 0.5-2.7 0.7-1.3 1.8 1 0.7 2.3 1 2.9 0.5q1.3-0.7 0.5 0.5c-0.4 0.8 0.6 2.3 2.8 4 2 1.6 3.7 2.6 3.9 2.3 0.2-0.3 0.2-2 0-3.8-0.3-2-1-3.2-1.9-3.2-0.8 0-1.5-0.5-1.5-1 0-0.6 0.4-0.8 1-0.5 0.5 0.3 1 0 1-0.5 0-0.6-1-0.9-2.3-0.9-1.2 0.1-3.5 0.4-5.1 0.8z"/></svg>